<svg width="1500" height="500" viewBox="0 0 1500 500" fill="none" xmlns="http://www.w3.org/2000/svg">
<g clip-path="url(#clip0)">
<path fill-rule="evenodd" clip-rule="evenodd" d="M1839 88.0383L1801.27 122.111C1765.19 156.184 1691.37 226.222 1617.56 305.725C1543.74 387.121 1469.93 477.982 1396.11 489.339C1322.3 502.59 1248.48 432.551 1174.67 421.194C1100.85 409.836 1027.04 455.266 953.222 455.266C879.407 455.266 805.593 409.836 731.778 364.406C657.963 317.083 584.148 271.652 510.333 248.937C436.519 226.222 333.315 241.75 259.5 228.5C185.685 217.142 141.259 178.899 67.4445 201.614C-6.37036 226.222 -80.1853 294.367 -117.913 328.44L-154 364.406V691H-117.913C-80.1853 691 -6.37036 691 67.4445 691C141.259 691 215.074 691 288.889 691C362.704 691 436.519 691 510.333 691C584.148 691 657.963 691 731.778 691C805.593 691 879.407 691 953.222 691C1027.04 691 1100.85 691 1174.67 691C1248.48 691 1322.3 691 1396.11 691C1469.93 691 1543.74 691 1617.56 691C1691.37 691 1765.19 691 1801.27 691H1839V88.0383Z" fill="#353535"/>
<path fill-rule="evenodd" clip-rule="evenodd" d="M956.674 350.815C954.735 350.012 953.028 348.688 952.18 346.666C949.736 340.842 958.259 338.089 961.229 340.15C964.199 342.212 967.655 349.503 965.926 351.013C965.236 351.616 963.299 351.972 961.064 351.814L965.96 358.825L959.598 362.04L956.674 350.815Z" fill="#FF913D"/>
<path fill-rule="evenodd" clip-rule="evenodd" d="M967.786 384.823L989.578 417.817L1005.51 446.231L1009.29 445.441L980.774 382.107L967.786 384.823Z" fill="#FF913D"/>
<path fill-rule="evenodd" clip-rule="evenodd" d="M964.913 385.424C967.404 398.098 968.747 415.583 968.558 416.445C968.432 417.02 961.681 425.405 948.305 441.6L951.488 443.83C968.136 428.862 976.745 420.552 977.315 418.901C978.17 416.424 978.216 395.266 979.125 382.452L964.913 385.424Z" fill="#FF913D"/>
<path fill-rule="evenodd" clip-rule="evenodd" d="M947.745 440.744C946.935 441.236 946.394 441.655 946.122 442.001C945.791 442.422 945.378 443.091 944.883 444.009C945.371 444.394 949.76 447.846 958.049 454.367C959.281 453.505 959.564 452.739 958.898 452.069C958.232 451.399 957.683 450.836 957.253 450.379L953.279 442.837C953.203 442.692 953.023 442.636 952.878 442.713C952.876 442.714 952.873 442.715 952.871 442.717L951.727 443.361C950.794 443.143 950.114 442.866 949.687 442.53C949.341 442.258 948.972 441.741 948.582 440.981L948.582 440.981C948.432 440.689 948.074 440.574 947.782 440.724C947.769 440.73 947.757 440.737 947.745 440.744Z" fill="#E4E4E4"/>
<path fill-rule="evenodd" clip-rule="evenodd" d="M1003.67 445.179C1003.53 446.115 1003.5 446.799 1003.59 447.23C1003.7 447.754 1003.95 448.501 1004.34 449.47C1004.94 449.343 1010.41 448.2 1020.73 446.042C1020.86 444.544 1020.46 443.835 1019.52 443.914C1018.58 443.994 1017.79 444.052 1017.17 444.089L1008.83 442.284C1008.67 442.25 1008.52 442.352 1008.48 442.512C1008.48 442.515 1008.48 442.517 1008.48 442.52L1008.24 443.811C1007.47 444.385 1006.82 444.728 1006.29 444.839C1005.86 444.929 1005.23 444.88 1004.39 444.69L1004.39 444.69C1004.07 444.617 1003.75 444.817 1003.68 445.137C1003.68 445.151 1003.68 445.165 1003.67 445.179Z" fill="#E4E4E4"/>
<path fill-rule="evenodd" clip-rule="evenodd" d="M990.608 446.077L1008.17 440.377L982.032 381.844L965.938 385.21L990.608 446.077Z" fill="#414141"/>
<path fill-rule="evenodd" clip-rule="evenodd" d="M951.086 436.346L965.778 447.779C975.368 431.677 980.763 421.351 981.962 416.8C983.162 412.25 982.681 400.703 980.52 382.161L962.401 385.949C964.851 402.148 965.997 410.652 965.84 411.462C965.683 412.273 960.765 420.567 951.086 436.346Z" fill="#474747"/>
<path fill-rule="evenodd" clip-rule="evenodd" d="M988.647 373.499L1000.02 376.406C1002.66 376.092 1004.97 376.092 1006.95 376.404C1007.47 376.596 1008.2 377.107 1006.59 377.615C1004.97 378.122 1003.29 378.729 1003.29 379.347C1003.29 379.966 1004.49 380.223 1004.34 381.116C1004.24 381.711 1002.38 381.062 998.765 379.169L988.616 379.06L988.647 373.499ZM954.963 387.236L960.734 384.952C961.75 397.806 962.256 404.639 962.252 405.452C962.252 405.577 962.25 405.693 962.248 405.803C962.217 407.433 962.246 409.464 961.127 410.65V410.65C959.363 412.519 958.442 414.995 955.326 414.46C954.942 414.394 954.321 413.818 954.913 412.936C956.388 410.74 958.342 407.147 958.418 406.191C958.521 404.888 957.37 398.57 954.963 387.236Z" fill="#FF913D"/>
<path fill-rule="evenodd" clip-rule="evenodd" d="M961.71 356.621L963.932 355.26C975.822 359.324 985.303 372.48 999.245 375.88L997.923 380.144C978.182 385.355 966.388 369.4 961.71 356.621Z" fill="white"/>
<path fill-rule="evenodd" clip-rule="evenodd" d="M963.248 390.599C972.809 386.773 979.842 383.959 984.347 382.156C985.311 381.77 984.575 380.457 984.156 379.814C979.319 372.39 969.56 366.207 964.964 354.723L958.499 356.209C956.689 366.279 958.917 376.894 963.248 390.599Z" fill="#DDE3E9"/>
<path fill-rule="evenodd" clip-rule="evenodd" d="M954.068 367.168C953.083 367.269 952.147 366.96 951.261 366.24C947.438 363.136 947.361 360.615 949.449 358.941C951.537 357.267 954.253 357.908 958.04 356.392C958.246 356.31 958.44 356.247 958.622 356.204L960.57 355.55C973.413 371.797 979.843 383.492 979.858 390.637L963.252 397.283C963.182 399.959 963.009 402.257 962.733 404.175L958.209 405.986C952.3 392.455 950.92 379.516 954.068 367.168Z" fill="white"/>
<path fill-rule="evenodd" clip-rule="evenodd" d="M963.08 386.368C965.342 390.507 967.454 393.323 969.415 394.816L963.252 397.283C963.334 394.16 963.277 390.522 963.08 386.368V386.368Z" fill="black" fill-opacity="0.1"/>
</g>
<defs>
<clipPath id="clip0">
<rect width="1500" height="500" fill="white"/>
</clipPath>
</defs>
</svg>
