<svg width="1500" height="500" viewBox="0 0 1500 500" fill="none" xmlns="http://www.w3.org/2000/svg">
<g clip-path="url(#clip0)">
<path fill-rule="evenodd" clip-rule="evenodd" d="M1839 51.0383L1801.27 85.111C1765.19 119.184 1691.37 189.222 1617.56 268.725C1543.74 350.121 1469.93 440.982 1396.11 452.339C1322.3 465.59 1248.48 395.551 1174.67 384.194C1100.85 372.836 1027.04 418.266 953.222 418.266C879.407 418.266 805.593 372.836 731.778 327.406C657.963 280.083 584.148 234.652 510.333 211.937C436.519 189.222 333.315 204.75 259.5 191.5C185.685 180.142 141.259 141.899 67.4445 164.614C-6.37036 189.222 -80.1853 257.367 -117.913 291.44L-154 327.406V654H-117.913C-80.1853 654 -6.37036 654 67.4445 654C141.259 654 215.074 654 288.889 654C362.704 654 436.519 654 510.333 654C584.148 654 657.963 654 731.778 654C805.593 654 879.407 654 953.222 654C1027.04 654 1100.85 654 1174.67 654C1248.48 654 1322.3 654 1396.11 654C1469.93 654 1543.74 654 1617.56 654C1691.37 654 1765.19 654 1801.27 654H1839V51.0383Z" fill="#FF913D"/>
<path fill-rule="evenodd" clip-rule="evenodd" d="M958.517 312.705C956.598 311.853 954.925 310.486 954.128 308.444C951.832 302.56 960.421 300.022 963.339 302.158C966.256 304.294 969.526 311.67 967.76 313.136C967.055 313.721 965.11 314.029 962.88 313.815L967.597 320.947L961.156 324L958.517 312.705Z" fill="#FF913D"/>
<path fill-rule="evenodd" clip-rule="evenodd" d="M968.767 346.982L989.72 380.515L1004.93 409.322L1008.73 408.628L981.82 344.595L968.767 346.982Z" fill="#FF913D"/>
<path fill-rule="evenodd" clip-rule="evenodd" d="M965.88 347.511C968.051 360.244 968.952 377.757 968.741 378.614C968.601 379.185 961.64 387.397 947.86 403.249L950.986 405.559C968.006 391.016 976.822 382.926 977.434 381.289C978.351 378.835 978.93 357.685 980.162 344.898L965.88 347.511Z" fill="#FF913D"/>
<path fill-rule="evenodd" clip-rule="evenodd" d="M947.322 402.38C946.5 402.851 945.949 403.256 945.668 403.596C945.326 404.008 944.896 404.667 944.378 405.572C944.857 405.968 949.157 409.531 957.279 416.258C958.533 415.428 958.835 414.669 958.186 413.982C957.537 413.296 957.003 412.719 956.584 412.252L952.802 404.612C952.729 404.465 952.551 404.405 952.404 404.477C952.401 404.479 952.399 404.48 952.396 404.481L951.236 405.097C950.309 404.855 949.637 404.561 949.219 404.215C948.879 403.933 948.524 403.408 948.152 402.638L948.152 402.638C948.01 402.342 947.655 402.218 947.359 402.36C947.346 402.366 947.334 402.373 947.322 402.38Z" fill="#E4E4E4"/>
<path fill-rule="evenodd" clip-rule="evenodd" d="M1003.12 408.224C1002.95 409.157 1002.91 409.839 1002.99 410.273C1003.09 410.799 1003.31 411.552 1003.67 412.531C1004.29 412.419 1009.78 411.414 1020.15 409.517C1020.32 408.023 1019.94 407.304 1018.99 407.36C1018.05 407.416 1017.26 407.454 1016.64 407.474L1008.35 405.461C1008.19 405.422 1008.03 405.52 1007.99 405.679C1007.99 405.682 1007.99 405.685 1007.99 405.687L1007.72 406.972C1006.94 407.526 1006.28 407.853 1005.75 407.95C1005.31 408.03 1004.68 407.964 1003.85 407.753L1003.85 407.753C1003.53 407.673 1003.21 407.865 1003.13 408.183C1003.13 408.196 1003.12 408.21 1003.12 408.224Z" fill="#E4E4E4"/>
<path fill-rule="evenodd" clip-rule="evenodd" d="M990.036 408.792L1007.74 403.537L983.084 344.364L966.91 347.322L990.036 408.792Z" fill="#414141"/>
<path fill-rule="evenodd" clip-rule="evenodd" d="M950.772 398.068L965.171 409.867C975.165 394.012 980.818 383.825 982.132 379.307C983.446 374.788 983.257 363.233 981.564 344.642L963.356 347.972C965.396 364.227 966.327 372.758 966.15 373.564C965.973 374.37 960.847 382.538 950.772 398.068Z" fill="#474747"/>
<path fill-rule="evenodd" clip-rule="evenodd" d="M989.907 336.188L1001.2 339.381C1003.85 339.134 1006.16 339.191 1008.13 339.554C1008.64 339.759 1009.36 340.288 1007.74 340.755C1006.11 341.222 1004.42 341.785 1004.4 342.404C1004.38 343.022 1005.57 343.309 1005.4 344.198C1005.29 344.791 1003.45 344.095 999.879 342.111L989.736 341.747L989.907 336.188ZM955.887 349.071L961.714 346.934C962.405 359.809 962.739 366.653 962.715 367.465C962.66 369.293 964.922 371.207 965.988 372.291C964.402 373.841 963.442 370.635 961.458 372.633C959.648 374.457 958.665 376.909 955.563 376.295C955.182 376.22 954.575 375.628 955.189 374.762C956.719 372.603 958.763 369.061 958.863 368.107C958.999 366.807 958.007 360.462 955.887 349.071Z" fill="#FF913D"/>
<path fill-rule="evenodd" clip-rule="evenodd" d="M963.404 318.636L965.66 317.331C977.444 321.694 986.59 335.085 1000.44 338.836L999.012 343.065C979.146 347.776 967.758 331.529 963.404 318.636Z" fill="white"/>
<path fill-rule="evenodd" clip-rule="evenodd" d="M964.085 352.642C973.739 349.058 980.841 346.422 985.39 344.734C986.363 344.372 985.661 343.042 985.258 342.388C980.61 334.844 971.01 328.417 966.706 316.82L960.204 318.143C958.141 328.164 960.101 338.832 964.085 352.642Z" fill="#DDE3E9"/>
<path fill-rule="evenodd" clip-rule="evenodd" d="M955.499 328.987C954.512 329.063 953.584 328.73 952.716 327.988C948.972 324.789 948.959 322.267 951.089 320.646C953.218 319.025 955.917 319.734 959.742 318.314C959.95 318.237 960.145 318.18 960.328 318.141L962.292 317.536C974.721 334.102 980.853 345.956 980.689 353.099L963.92 359.323C963.782 361.998 963.552 364.29 963.228 366.201L958.659 367.897C953.093 354.221 952.04 341.251 955.499 328.987Z" fill="white"/>
<path fill-rule="evenodd" clip-rule="evenodd" d="M964.023 348.408C966.18 352.603 968.22 355.472 970.143 357.014L963.92 359.323C964.081 356.204 964.115 352.566 964.023 348.408Z" fill="black" fill-opacity="0.1"/>
</g>
<defs>
<clipPath id="clip0">
<rect width="1500" height="500" fill="white"/>
</clipPath>
</defs>
</svg>
