<svg width="1920" height="1849" viewBox="0 0 1920 1849" fill="none" xmlns="http://www.w3.org/2000/svg">
<path fill-rule="evenodd" clip-rule="evenodd" d="M1921 378.633L2001 369V1079.5H1921H1920L1920 1848.5L1840 1752.17C1760 1655.83 1600 1463.17 1440 1376.47C1280 1289.77 1120 1309.03 960 1347.57C880 1366.83 800 1390.92 719.999 1415C640 1439.08 560 1463.17 480 1482.43C320 1520.97 160 1540.23 80.0001 1549.87L4.95911e-05 1559.5L0.000146866 1007.94L-19 999.5V0L161 176.333C241 272.667 401 465.333 561 552.033C721 638.733 881 619.467 1041 580.933C1121 561.667 1201 537.583 1281 513.5C1361 489.417 1441 465.333 1521 446.067C1681 407.533 1841 388.267 1921 378.633Z" fill="black"/>
</svg>
